<svg width="264" height="64" viewBox="0 0 264 64" fill="none" xmlns="http://www.w3.org/2000/svg">
<path d="M31.6508 31.6505C34.3894 31.6505 37.0665 30.8384 39.3435 29.3169C41.6206 27.7954 43.3953 25.6329 44.4433 23.1028C45.4913 20.5727 45.7655 17.7886 45.2313 15.1026C44.697 12.4166 43.3783 9.94943 41.4418 8.01296C39.5053 6.07649 37.0381 4.75773 34.3521 4.22346C31.6662 3.68919 28.8821 3.9634 26.352 5.01141C23.8218 6.05942 21.6593 7.83417 20.1378 10.1112C18.6163 12.3883 17.8043 15.0654 17.8043 17.8039C17.8043 21.4763 19.2631 24.9982 21.8598 27.5949C24.4565 30.1916 27.9785 31.6505 31.6508 31.6505ZM31.6508 35.6066C23.0684 35.6066 5.93579 40.9079 5.93579 51.4312V59.3436H57.3658V51.4312C57.3658 40.9079 40.2332 35.6066 31.6508 35.6066Z" fill="#F05814"/>
<path d="M88.9616 31.6505C91.7002 31.6505 94.3773 30.8384 96.6543 29.3169C98.9314 27.7954 100.706 25.6329 101.754 23.1028C102.802 20.5727 103.076 17.7886 102.542 15.1026C102.008 12.4166 100.689 9.94943 98.7526 8.01296C96.8161 6.07649 94.3489 4.75773 91.6629 4.22346C88.9769 3.68919 86.1929 3.9634 83.6627 5.01141C81.1326 6.05942 78.9701 7.83417 77.4486 10.1112C75.9271 12.3883 75.115 15.0654 75.115 17.8039C75.115 21.4763 76.5739 24.9982 79.1706 27.5949C81.7673 30.1916 85.2893 31.6505 88.9616 31.6505ZM88.9616 35.6066C80.3792 35.6066 63.2466 40.9079 63.2466 51.4312V59.3436H114.677V51.4312C114.677 40.9079 97.544 35.6066 88.9616 35.6066Z" fill="#F05814"/>
<path d="M146.272 31.6505C149.011 31.6505 151.688 30.8384 153.965 29.3169C156.242 27.7954 158.017 25.6329 159.065 23.1028C160.113 20.5727 160.387 17.7886 159.853 15.1026C159.319 12.4166 158 9.94943 156.063 8.01296C154.127 6.07649 151.66 4.75773 148.974 4.22346C146.288 3.68919 143.504 3.9634 140.974 5.01141C138.443 6.05942 136.281 7.83417 134.759 10.1112C133.238 12.3883 132.426 15.0654 132.426 17.8039C132.426 21.4763 133.885 24.9982 136.481 27.5949C139.078 30.1916 142.6 31.6505 146.272 31.6505ZM146.272 35.6066C137.69 35.6066 120.557 40.9079 120.557 51.4312V59.3436H171.987V51.4312C171.987 40.9079 154.855 35.6066 146.272 35.6066Z" fill="#F05814"/>
<path d="M232.352 31.6505C235.091 31.6505 237.768 30.8384 240.045 29.3169C242.322 27.7954 244.097 25.6329 245.145 23.1028C246.193 20.5727 246.467 17.7886 245.933 15.1026C245.399 12.4166 244.08 9.94943 242.143 8.01296C240.207 6.07649 237.74 4.75773 235.054 4.22346C232.368 3.68919 229.584 3.9634 227.054 5.01141C224.523 6.05942 222.361 7.83417 220.839 10.1112C219.318 12.3883 218.506 15.0654 218.506 17.8039C218.506 21.4763 219.965 24.9982 222.561 27.5949C225.158 30.1916 228.68 31.6505 232.352 31.6505ZM232.352 35.6066C223.77 35.6066 206.637 40.9079 206.637 51.4312V59.3436H258.067V51.4312C258.067 40.9079 240.935 35.6066 232.352 35.6066Z" fill="#F05814"/>
</svg>
