<svg width="128" height="101" viewBox="0 0 128 101" fill="none" xmlns="http://www.w3.org/2000/svg">
<g clip-path="url(#clip0_384_199)">
<path d="M61.7498 54.2814C64.0724 53.2605 66.7436 54.4835 67.6875 56.9989L73.0977 70.1544H74.8359V34.374C74.8359 31.6596 76.8871 29.4387 79.3932 29.4387C81.901 29.4387 83.9506 31.6596 83.9506 34.374V57.7777L86.2301 57.8163V26.9711C86.2301 24.2567 88.2813 22.0359 90.7875 22.0359C93.3013 22.0359 95.3448 24.2567 95.3448 26.9711V57.7777L97.6197 57.8163V31.9063C97.6197 29.192 99.6709 26.9711 102.177 26.9711C104.685 26.9711 106.734 29.192 106.734 31.9063V60.2453L109.014 60.2839V41.7768C109.014 39.0624 111.065 36.8416 113.571 36.8416C116.08 36.8416 118.132 39.0624 118.132 41.7768V75.0896C118.132 86.7799 112.405 101 92.0675 101C85.7751 101 79.8189 99.9199 76.5432 97.7608C74.489 96.4066 72.7218 94.661 71.3427 92.6235C70.3121 91.1031 69.4826 89.4556 68.875 87.7222L59.2421 60.7111C58.2998 58.1957 59.4272 55.3039 61.7498 54.2814Z" fill="#00B0D7"/>
</g>
<path d="M33.8849 6.28687C18.8469 6.28687 6.65503 18.4788 6.65503 33.5167C6.65503 48.5311 18.8718 60.7465 33.8849 60.7465C48.9215 60.7465 61.1147 48.5533 61.1147 33.5167C61.1147 18.5023 48.8992 6.28687 33.8849 6.28687ZM48.0234 37.7059H32.3139C32.175 37.7059 32.0418 37.6507 31.9436 37.5525C31.8454 37.4543 31.7903 37.3211 31.7903 37.1823V15.1889C31.7903 15.05 31.8454 14.9169 31.9436 14.8187C32.0418 14.7204 32.175 14.6653 32.3139 14.6653H35.4558C35.5947 14.6653 35.7279 14.7204 35.8261 14.8187C35.9243 14.9169 35.9795 15.05 35.9795 15.1889V33.5167H48.0234C48.1623 33.5167 48.2955 33.5719 48.3937 33.6701C48.4919 33.7683 48.5471 33.9015 48.5471 34.0404V37.1823C48.5471 37.3211 48.4919 37.4543 48.3937 37.5525C48.2955 37.6507 48.1623 37.7059 48.0234 37.7059Z" fill="#00B0D7"/>
<defs>
<clipPath id="clip0_384_199">
<rect width="78.9636" height="78.9636" fill="white" transform="translate(49.0364 22.0364)"/>
</clipPath>
</defs>
</svg>
